<?xml version="1.0" encoding="UTF-8"?>
<svg id="Ebene_1" data-name="Ebene 1" xmlns="http://www.w3.org/2000/svg" viewBox="0 0 499.32 510.26">
  <path d="M178.68,71.85l-70.24,71.71,36.19.4,36.06.27,21.77-21.63,21.77-21.77v213l25.11-.27,24.97-.4.67-105.5.67-105.5,21.5,20.97,21.5,21.1h73.05l-11.35-11.62C349.49,100.56,250.4,0,249.73,0c-.4,0-32.45,32.32-71.04,71.85Z"/>
  <path d="M110.71,260.41v82.8h-24.04v-80.13h-15.62c-17.49,0-23.24,2-25.77,8.81-.8,2-1.34,36.99-1.34,90.27v86.8l4.54,4.54,4.54,4.54h33.65v-80.13h23.64l.93,9.62c2.54,27.78,16.03,57.56,35.52,78.92,17.09,18.83,44.6,34.59,70.38,40.33,25.24,5.74,56.22,4.27,79.99-3.87,49.81-16.96,86.94-63.7,90.94-114.71l.8-10.28h24.97v80.13h15.36c11.22,0,16.56-.53,19.36-2,8.28-4.27,8.01-1.74,8.01-94.01,0-73.58-.27-84.93-2.14-89.47-3.07-7.75-7.75-9.48-25.77-9.48h-14.82v80.13h-25.37v-165.59h-48.08v165.59h-180.28v-165.59h-49.41v82.8ZM338.94,384.87c-2.14,16.03-7.21,27.91-17.89,42.07-11.08,14.96-28.98,26.57-48.74,31.92-10.68,2.8-33.65,3.21-44.07.67-11.75-2.8-30.58-12.55-39.13-20.16-15.49-14.02-26.84-34.99-28.58-52.88l-.8-8.55h180.28l-1.07,6.94Z"/>
  <path d="M8.29,295.13c-1.6.67-4.01,2.8-5.34,4.94-2.14,3.34-2.4,8.15-2.8,57.69-.4,58.36-.4,59.03,6.68,64.9,3.61,3.07,5.07,3.34,15.89,3.34h11.89v-132.21l-11.62.13c-6.54,0-13.09.53-14.69,1.2Z"/>
  <path d="M465.93,358.56c0,35.66-.13,65.17-.27,65.7-.53,1.6,20.83,2,24.71.53,2-.8,4.81-3.34,6.28-5.74,2.54-4.27,2.67-6.81,2.67-59.16s-.13-54.89-2.67-59.16c-3.47-5.61-7.21-6.94-20.16-6.94h-10.55v64.77Z"/>
</svg>