<?xml version="1.0" encoding="UTF-8"?>
<svg id="Ebene_1" data-name="Ebene 1" xmlns="http://www.w3.org/2000/svg" viewBox="0 0 353.89 512">
  <defs>
    <style>
      .cls-1 {
        fill: #fff;
      }
    </style>
  </defs>
  <path class="cls-1" d="M105.22,71.76l-70.82,71.76h72.96l21.46-20.52c11.8-11.13,22-20.66,22.67-20.79.67-.27,1.21,10.19,1.21,24.95v25.48l4.43.94c2.28.4,8.45,2.01,13.41,3.62,8.58,2.68,9.39,2.68,14.08.54,2.68-1.21,7.38-2.68,10.33-3.22l5.36-1.07.94-22c.54-12.21,1.21-23.87,1.34-26.02.4-3.76,1.48-2.82,22.67,17.84l22.4,21.59h72.96l-71.49-72.43C209.84,32.59,177.38,0,176.84,0c-.4,0-32.59,32.32-71.62,71.76Z"/>
  <path class="cls-1" d="M115.82,177.45c-9.39,3.49-19.05,9.66-27.5,17.7-4.96,4.69-7.24,5.9-12.34,6.44-14.75,1.48-34.2,16.36-41.58,31.92-3.89,8.05-7.11,23.87-5.63,28.3.67,2.15-1.07,4.56-7.78,11-24.14,22.94-27.9,58.88-8.99,83.83,4.29,5.77,5.23,7.91,4.56,10.73-5.77,22.53-1.61,41.18,12.74,56.87,3.62,4.02,10.06,9.12,14.35,11.4,6.84,3.62,8.58,5.36,13.81,14.49,10.33,17.57,18.38,25.22,39.83,37.42,25.75,14.89,43.32,21.06,67.46,23.74,22,2.41,48.28-1.34,68.27-9.93,12.07-5.1,37.96-20.66,45.2-27.09,7.91-6.97,16.63-18.78,20.52-28.03,2.15-4.96,3.76-6.44,11.13-10.06,10.6-5.23,21.33-16.09,26.29-26.69,3.08-6.71,3.62-9.52,3.62-20.52,0-7.24-.8-15.16-1.88-18.38-1.88-5.5-1.74-5.77,2.28-10.46,9.12-10.33,13.68-24.01,13.68-40.91,0-18.78-5.9-32.73-19.31-45.33l-7.51-7.11v-8.58c0-27.63-20.52-52.44-45.87-55.26-6.57-.67-7.91-1.48-16.63-9.93-17.17-16.5-36.48-22.26-54.99-16.5-9.79,2.95-21.33,13.68-22.67,20.79-.4,2.55-.67,63.44-.4,135.33l.4,130.77,2.95,5.36c3.49,6.57,7.38,10.19,15.02,14.08,3.35,1.61,5.36,3.35,4.69,4.02s-5.1,2.28-9.93,3.49c-15.29,3.89-52.31.94-52.31-4.29,0-.94,2.68-3.22,5.77-5.1,6.04-3.49,11.13-9.39,14.08-15.96,1.21-2.82,1.61-35.14,1.61-135.87,0-129.3,0-132.25-2.68-137.34-7.78-15.16-30.45-21.73-50.3-14.35ZM141.97,195.15c2.15,1.07,4.56,3.22,5.36,4.56.8,1.61,1.34,13.01,1.34,27.5v24.95h-4.43c-9.12,0-24.81-6.71-32.99-14.08l-5.1-4.56-7.24,6.57-7.24,6.71,6.44,6.04c8.32,7.65,19.98,13.28,35.14,16.9,6.71,1.61,12.88,3.08,13.81,3.35,1.21.4,1.61,4.83,1.61,16.5v16.09l-11.13-.13c-24.01-.4-49.09,13.68-58.61,32.86-3.89,7.91-7.65,22-6.04,23.47.4.4,4.69,1.07,9.39,1.34,6.57.4,8.85.13,9.39-1.21,5.5-15.83,6.84-18.38,12.74-24.14,8.05-7.91,18.24-11.94,30.45-11.94,15.02,0,13.81-5.77,13.81,68.81v64.25l-4.43,4.43c-5.63,5.63-13.81,7.91-24.95,6.84-27.63-2.55-36.88-23.47-22.8-51.77,6.17-12.21,14.08-20.12,26.15-26.02,4.29-2.15,8.18-4.16,8.32-4.29,1.07-.67-8.18-16.63-9.66-16.63-2.55,0-21.33,11.53-25.75,15.96-7.78,7.38-13.68,15.42-18.24,24.95-4.16,8.58-4.83,9.39-9.12,9.79-11.8,1.21-25.89-7.91-31.65-20.52-2.41-4.96-3.22-9.12-3.22-15.69,0-11.8.67-13.28,4.96-11.67,4.83,1.74,11-2.41,13.01-8.85.67-2.28-.54-3.35-6.97-6.71-19.98-10.46-29.37-29.37-23.74-48.42,2.55-8.99,7.24-17.44,11.94-21.86l3.35-3.22,8.18,7.51c4.56,4.02,12.61,9.52,17.84,12.07,8.45,4.16,12.61,5.36,27.5,8.45,2.82.54,2.95.27,2.95-9.39v-10.06l-7.65-1.48c-28.84-6.04-43.86-29.1-33.13-50.7,6.57-13.28,18.51-20.79,34.07-21.19l10.06-.4,3.22-5.1c10.6-17.17,30.58-26.29,43.05-19.85ZM234.38,195.15c15.96,5.63,24.95,20.52,22.26,37.55-1.07,7.65-8.05,15.96-16.23,19.58l-5.5,2.41,2.68,8.18c1.48,4.43,3.08,8.05,3.76,8.05,3.89,0,16.63-6.3,21.73-10.86,8.18-7.11,12.74-16.77,13.81-29.1,1.07-10.86,1.61-11.27,10.6-7.11,6.57,2.95,13.41,9.66,17.17,16.9,3.76,7.38,4.69,23.74,1.88,32.19l-2.15,6.17,3.62,1.34c8.99,3.22,10.86,4.43,16.09,9.66,8.45,8.58,11.67,16.9,11.67,29.78-.13,22.67-12.61,36.75-29.78,33.53-16.36-2.95-28.3-13.81-34.47-30.98l-1.88-5.5,4.83-2.28c6.3-2.95,15.02-8.85,15.02-10.19,0-.67-2.95-3.49-6.57-6.57l-6.44-5.5-7.51,4.02c-9.25,5.1-19.98,8.85-28.7,10.06l-6.71.94-.8,8.85c-.4,4.96-.54,9.12-.27,9.39s4.16-.13,8.58-.8l8.32-1.21,5.5,10.6c7.11,13.68,21.33,29.1,30.45,32.99,3.62,1.61,11.53,3.76,17.57,4.83,8.72,1.48,11.8,2.68,15.02,5.77,3.76,3.49,4.02,4.16,3.35,11.8-.67,9.25-3.35,15.42-9.52,21.86-5.5,6.04-10.06,8.18-20.52,10.19l-8.58,1.48-3.08,8.85c-5.63,16.36-15.56,27.23-31.12,34.34-14.62,6.71-31.52,4.16-39.3-5.77-2.68-3.49-2.82-5.1-2.82-41.71v-38.23l4.96.94c17.57,3.22,30.58,18.78,28.17,33.53l-.8,4.83,10.33-.4,10.33-.4.4-4.43c.54-5.5-2.95-17.84-7.51-26.15-1.88-3.62-6.71-9.52-10.73-13.14-5.9-5.36-9.25-7.24-17.44-9.66-5.9-1.74-11.67-4.43-13.95-6.44l-3.76-3.62v-77.66c0-72.7.13-77.93,2.41-79.94,5.63-5.1,16.09-6.3,25.62-2.95Z"/>
</svg>