<?xml version="1.0" encoding="UTF-8"?>
<svg id="Ebene_1" data-name="Ebene 1" xmlns="http://www.w3.org/2000/svg" viewBox="0 0 298.42 512">
  <defs>
    <style>
      .cls-1 {
        fill: #fff;
      }
    </style>
  </defs>
  <path class="cls-1" d="M74.25,74.25L0,148.51h74.11l18.91-18.63c10.51-10.37,22.56-21.02,26.76-23.82,16.81-10.93,36.29-12.33,53.94-3.78,7.57,3.78,12.89,7.99,23.82,18.91,7.71,7.71,16.11,17.65,18.77,22.14,18.91,31.94,20.03,67.95,3.22,101.29-10.23,20.31-19.05,30.4-62.49,71.31-40.21,37.83-51.98,57.16-53.66,88.54-.98,16.53.7,27.04,6.72,42.31,2.1,5.74,3.78,10.65,3.5,10.93-.14.28-4.9-1.82-10.37-4.48-13.03-6.58-30.68-23.12-38.25-35.87-3.22-5.32-7.43-14.43-9.39-20.45l-3.78-10.93-.42-57.16-.42-57.02H1.96l.56,61.22c.56,69.63.7,70.89,13.03,96.95,7.99,17.09,15.83,27.74,30.26,41.61,19.33,18.63,41.19,30.26,69.49,37.27,17.23,4.2,46.37,4.2,63.75,0,43.29-10.65,77.06-36.29,95.97-72.99,15.13-29.42,17.09-40.91,17.09-103.82l-.14-46.93-3.92,9.81c-7.71,18.91-17.51,33.62-33.9,50.44l-12.19,12.61-.56,15.41c-.56,10.79-1.68,18.07-3.78,24.52-12.47,36.43-46.23,63.19-82.94,65.43l-12.19.84-1.68-5.32c-2.66-7.99-1.12-26.34,2.94-36.43,8.55-21.02,22.14-35.87,61.5-67.25,48.33-38.67,63.61-57.58,72.15-88.96,3.22-12.05,4.48-54.78,2.1-69.91-1.96-12.75-7.43-30.54-12.05-39.65-1.82-3.64-3.36-7.01-3.36-7.43s7.71-.7,17.23-.7l17.09-.14-74.95-74.11C182.27,33.34,148.51,0,148.51,0c0,0-33.48,33.34-74.25,74.25Z"/>
  <path class="cls-1" d="M145.14,138.7c-14.15,2.94-26.62,13.03-32.78,26.34-4.76,10.23-4.34,27.74.84,38.39,7.43,14.99,20.45,23.68,37.55,24.66,9.39.56,11.63.14,19.05-3.22,24.8-11.07,34.61-39.09,22.28-63.47-8.41-16.53-28.86-26.34-46.93-22.7Z"/>
  <path class="cls-1" d="M11.91,202.87q-3.36,1.12,1.26,2.94c14.71,6.16,30.26,19.61,56.46,48.76,15.27,16.95,30.12,29.7,41.19,35.17l5.74,2.94,5.18-6.16c2.8-3.36,11.77-11.77,19.89-18.49,13.31-11.07,14.43-12.33,11.49-13.17-20.31-6.02-19.61-5.6-43.15-22.28-18.77-13.31-30.26-19.47-48.05-25.5-11.07-3.78-15.13-4.48-29.7-4.76-9.25-.28-18.35,0-20.31.56Z"/>
</svg>