<?xml version="1.0" encoding="UTF-8"?>
<svg id="Ebene_1" data-name="Ebene 1" xmlns="http://www.w3.org/2000/svg" viewBox="0 0 304.59 512">
  <defs>
    <style>
      .cls-1 {
        fill: #fff;
      }
    </style>
  </defs>
  <path class="cls-1" d="M75.39,75.97L0,152.23h78.7l21.87-21.87c12.09-12.09,22.45-21.44,23.02-20.72.58.58,1.29,24.46,1.58,53.09l.43,52.08h53.09v-107.91l23.45,23.45,23.31,23.31h79.13l-76.26-76.69C186.33,34.68,151.79,0,151.36,0c-.43-.14-34.68,33.96-75.97,75.97Z"/>
  <path class="cls-1" d="M2.73,186.18c-.58.58-1.01,33.81-.86,73.81v72.8l3.6-10.07c8.35-23.74,22.45-46.9,40.29-65.9l9.21-9.78-.29-30.5-.43-30.5-25.32-.43c-13.81-.14-25.61.14-26.19.58Z"/>
  <path class="cls-1" d="M250.21,186.33c-.58.43-1.01,14.53-1.01,31.22v30.5l10.22,9.93c5.61,5.61,14.24,16.26,19.42,23.88,7.91,11.8,11.51,18.7,20.43,38.7,1.15,2.73,1.58-13.81,1.58-65.9l.14-69.35h-24.89c-13.81,0-25.47.43-25.9,1.01Z"/>
  <path class="cls-1" d="M137.26,240.14C53.67,250.21.14,330.21,21.29,413.37c2.73,10.65,11.51,29.5,18.7,40.29,18.85,28.63,49.21,48.63,84.75,56.26,13.38,2.88,40.43,2.73,54.82-.14,54.96-11.37,96.83-54.67,105.75-109.21,2.45-15.83,1.01-47.48-3.02-61.15-11.8-41.15-41.44-74.67-79.71-90.07-20.14-8.2-45.03-11.65-65.32-9.21ZM140.86,317.11c-.58.58-32.66-2.16-35.11-3.02-3.6-1.29,8.63-25.61,18.56-36.98,1.73-2.01,6.19-5.76,9.78-8.35l6.47-4.46.43,26.19c.14,14.39.14,26.33-.14,26.62ZM169.49,268.48c11.65,8.49,25.32,28.63,28.63,42.3l1.01,3.74-14.24.86c-7.77.58-16.26,1.15-18.7,1.58l-4.75.58v-26.62c0-14.53.58-26.47,1.15-26.47.72,0,3.88,1.87,6.91,4.03ZM97.26,279.13c-2.73,4.17-6.91,12.81-9.35,19.14s-4.6,11.65-4.89,11.94c-.72.72-18.7-4.17-20-5.47-2.01-2.01,18.7-21.44,29.35-27.77,5.18-2.88,9.5-5.32,9.64-5.32s-2.01,3.45-4.75,7.48ZM208.77,275.53c10.5,6.04,22.59,15.83,28.34,22.73,2.88,3.6,5.04,6.76,4.75,7.05-.72.58-19.42,5.18-21.15,5.18-.72,0-2.16-2.73-3.17-6.19-2.16-7.48-7.63-18.42-13.24-26.62-2.3-3.31-3.74-6.04-3.17-6.04s4.03,1.73,7.63,3.88ZM59.85,325.75c4.75,1.15,11.08,2.73,13.81,3.45l5.18,1.44-1.73,11.8c-1.01,6.62-1.87,14.39-1.87,17.27l-.14,5.47h-18.7c-21.29,0-19.28,1.87-15.68-14.39,1.87-8.63,8.35-27.34,9.5-27.34.43,0,4.75,1.01,9.64,2.3ZM256.54,329.92c3.31,7.34,8.49,26.91,8.49,31.94,0,3.31-.14,3.31-17.99,3.31-13.38,0-17.99-.43-17.99-1.87,0-.86-1.01-8.49-2.01-16.83-1.15-8.35-2.01-15.25-1.87-15.25.43-.43,26.04-7.48,27.34-7.63.58-.14,2.45,2.73,4.03,6.33ZM135.25,337.83h6.04v27.34h-46.33l.86-8.35c.58-4.46,1.58-11.51,2.45-15.4l1.44-7.34,14.68,1.87c8.06,1.01,17.41,1.73,20.86,1.87ZM205.17,337.4c1.01,4.89,3.74,23.45,3.74,25.9,0,1.44-5.76,1.87-23.74,1.87h-23.74v-27.34l6.19-.14c4.75-.14,31.65-3.02,35.83-4.03.43,0,1.29,1.58,1.73,3.74ZM75.11,392.79c0,5.32,2.01,21.87,3.17,27.19.29,1.15-27.77,10.5-28.49,9.5-1.73-2.59-7.91-21.15-9.06-27.63-1.01-4.75-2.01-10.07-2.45-11.94q-.58-3.17,18.13-3.17h18.7v6.04ZM141.29,400.13v13.52l-14.68,1.01c-8.2.43-17.84,1.29-21.44,1.73l-6.62.86-.86-5.47c-.43-3.17-1.29-9.93-1.87-15.4l-1.01-9.64h46.47v13.38ZM208.19,393.51c-2.45,19.57-3.88,25.04-6.33,24.17-4.32-1.29-23.74-3.45-32.09-3.6h-8.35v-27.34h47.62l-.86,6.76ZM264.45,394.81c-1.01,8.49-7.34,29.35-10.07,32.8-1.44,1.87-3.31,1.73-15.25-1.58-7.48-2.16-13.96-4.03-14.24-4.17-.14-.29.29-4.75,1.15-10.22.72-5.32,1.87-13.24,2.45-17.41l.86-7.48h36.11l-1.01,8.06ZM141.29,460.13c0,14.24-.29,25.9-.72,25.9-3.02,0-12.81-6.76-17.55-12.09-9.5-10.65-21.01-34.82-17.27-36.11,2.73-1.01,21.01-3.17,28.78-3.45l6.76-.14v25.9ZM192.22,436.53c6.47,1.01,6.76,1.15,5.9,4.75-1.73,6.91-11.08,24.46-16.26,30.5-4.75,5.61-16.55,14.24-19.28,14.24-.58,0-1.15-11.8-1.15-26.04v-26.19l11.94.86c6.47.58,14.96,1.44,18.85,1.87ZM87.91,453.66c2.59,6.33,6.47,14.53,8.78,18.27,2.3,3.88,3.6,6.91,3.02,6.91-5.04,0-39.71-28.63-37.41-30.79.58-.58,20.57-6.33,20.86-6.04.14,0,2.3,5.32,4.75,11.65ZM234.67,445.6l8.06,2.45-7.19,7.63c-7.48,8.06-15.97,14.53-27.05,21.01l-7.05,4.03,4.46-7.05c4.17-7.05,13.09-27.63,13.09-30.65,0-1.73,2.01-1.44,15.68,2.59Z"/>
</svg>