<?xml version="1.0" encoding="UTF-8"?>
<svg id="Ebene_1" data-name="Ebene 1" xmlns="http://www.w3.org/2000/svg" viewBox="0 0 655.73 1004">
  <path d="M163.42,164.44L0,328.63l73.88-.77,73.63-.77,13.85-11.8c7.7-6.67,35.4-32.84,62.08-58.75l47.97-46.69v559.78h112.88V209.08l55.93,55.41c30.53,30.53,58.49,57.47,62.08,59.77,5.39,3.59,15.91,4.1,79.79,4.1h73.63l-164.44-164.19C400.72,73.88,326.58,0,326.58,0c0,0-73.37,73.88-163.16,164.44Z"/>
  <path d="M4.1,450.75c-1.54,129.55.77,260.14,4.87,285.53,20.52,130.84,125.96,237.05,261.42,263.21,33.09,6.41,89.79,5.9,121.6-1.03,86.46-18.73,159.06-67.73,206.26-138.53,18.98-28.22,28.73-48.74,38.22-78.76,14.37-45.66,15.14-56.18,16.42-230.38l1.54-160.85h-110.83l-.77,162.14-.77,162.39-7.18,22.58c-12.31,39.76-28.73,66.7-57.47,94.41-28.22,27.45-51.57,41.05-89.79,52.59-19.5,5.9-27.45,6.93-57.21,7.18-38.99.26-57.72-3.59-88.76-17.7-36.69-16.68-67.21-41.56-87.48-71.06-17.19-24.88-24.88-40.79-33.35-67.98l-6.93-22.58-.26-160.85v-161.11H4.62l-.51,60.8Z"/>
</svg>