<?xml version="1.0" encoding="UTF-8"?>
<svg id="Ebene_1" data-name="Ebene 1" xmlns="http://www.w3.org/2000/svg" viewBox="0 0 938.62 770.83">
  <defs>
    <style>
      .cls-1 {
        fill: #fff;
      }
    </style>
  </defs>
  <path class="cls-1" d="M394.33,79.08l-78.58,78.95,35.53-.37,35.41-.37,6.66-5.67c3.7-3.21,17.02-15.79,29.85-28.25l23.07-22.45v269.19h54.28V100.54l26.89,26.65c14.68,14.68,28.13,27.63,29.85,28.74,2.59,1.73,7.65,1.97,38.37,1.97h35.41l-79.08-78.95C508.44,35.53,472.79,0,472.79,0c0,0-35.28,35.53-78.46,79.08Z"/>
  <path class="cls-1" d="M317.72,216.75c-.74,62.3.37,125.09,2.34,137.31,9.87,62.92,60.57,113.99,125.71,126.57,15.91,3.08,43.18,2.84,58.48-.49,41.57-9.01,76.49-32.57,99.19-66.62,9.13-13.57,13.82-23.44,18.38-37.87,6.91-21.96,7.28-27.02,7.9-110.78l.74-77.35h-53.29l-.37,77.97-.37,78.09-3.45,10.86c-5.92,19.12-13.82,32.08-27.63,45.4-13.57,13.2-24.8,19.74-43.18,25.29-9.38,2.84-13.2,3.33-27.51,3.45-18.75.12-27.76-1.73-42.68-8.51-17.64-8.02-32.32-19.99-42.07-34.17-8.27-11.97-11.97-19.62-16.04-32.69l-3.33-10.86-.12-77.35v-77.47h-52.43l-.25,29.24Z"/>
  <path class="cls-1" d="M154.5,560.7c-20.85,4.32-37.75,17.89-47.37,37.87-5.55,11.84-5.43,11.23-23.56,77.47-15.05,54.9-16.78,64.89-13.08,74.51,4.19,10.86,15.05,17.89,30.47,19.86,14.19,1.73,33.19-5.06,44.66-16.04,3.21-3.08,5.8-5.43,5.8-5.3,0,.25-1.11,4.32-2.47,9.01s-2.47,8.76-2.47,8.88c0,.25,6.04.37,13.45.37,11.72,0,13.45-.25,14.06-2.22.25-1.11,7.28-25.17,15.54-53.42,8.14-28.25,14.93-51.94,14.93-52.8,0-.99-7.4-1.36-29.11-1.11l-29.11.37-4.07,14.19c-2.22,7.77-4.44,15.17-4.93,16.28-.74,1.97.12,2.22,9.01,2.22h9.75l-4.56,15.42c-7.4,24.67-13.57,31.71-28.13,31.95-5.92,0-7.03-.37-9.75-3.58-2.84-3.21-3.08-4.32-2.47-10.98.74-8.64,29.24-107.95,33.8-117.57,5.18-11.1,15.91-17.76,25.78-15.79,8.76,1.6,9.99,9.5,4.32,28.25l-3.45,11.84h40.22l3.08-10.24c6.29-20.48,7.03-28.13,3.82-38.74-2.34-7.9-9.87-15.05-19.86-18.88-9.38-3.58-31.46-4.44-44.29-1.85Z"/>
  <path class="cls-1" d="M296.37,559.59c-15.91,2.47-29.61,9.38-40.71,20.73-13.57,13.69-16.41,20.6-34.79,84.63l-15.79,54.9v14.19c0,13.2.25,14.56,3.33,19.86,6.04,10.36,17.89,15.79,36.76,16.78,20.36,1.23,40.22-4.56,55.02-15.67,7.65-5.67,16.28-17.39,21.47-28.87,5.55-12.21,31.21-98.69,35.28-119.05,4.44-22.21-1.48-36.39-18.26-43.92-7.03-3.21-9.13-3.58-23.19-3.82-8.51-.12-17.02,0-19.12.25ZM310.56,592.77c4.32,2.22,6.79,8.88,5.8,15.91-.99,6.42-29.73,104.86-32.82,112.02-4.81,11.23-13.94,18.13-23.93,18.26-10.24,0-15.54-6.79-13.94-18.01.37-2.96,3.82-16.04,7.65-29.11,22.82-78.83,25.41-86.6,31.71-93.26,6.54-7.03,18.01-9.62,25.54-5.8Z"/>
  <path class="cls-1" d="M55.32,576.12c-2.1,7.16-9.38,32.32-16.16,56.13C24.47,682.83,1.04,763.02.05,765.61c-.49,1.48,2.59,1.73,19.49,1.73h20.23l19-65.14c10.49-35.78,23.93-81.42,29.85-101.41,5.92-19.99,10.73-36.52,10.61-36.64s-9.25-.37-20.23-.62l-19.86-.37-3.82,12.95Z"/>
  <path class="cls-1" d="M387.79,563.66c-1.11,1.85-44.29,154.33-46.02,162.23-4.32,20.6,2.47,34.54,20.23,41.57,6.17,2.47,9.38,2.84,23.81,2.84,18.75.12,27.63-1.73,40.46-8.14,15.67-7.9,25.78-21.71,33.31-45.4,2.84-8.88,42.81-147.55,43.8-151.99.12-.49-8.76-1.11-19.74-1.36l-19.99-.37-3.82,14.19c-16.65,60.7-41.33,144.71-43.92,149.15-5.55,9.38-16.78,14.31-25.66,11.35-5.55-1.73-8.14-5.43-8.14-11.23,0-2.47,10.24-39.97,22.7-83.27,12.58-43.3,22.7-78.83,22.58-78.95-.86-.62-39.23-1.23-39.6-.62Z"/>
  <path class="cls-1" d="M518.68,574.39c-14.56,52.06-46.39,164.45-50.21,177.15l-4.56,15.79h90.3l5.18-16.41,5.06-16.28-25.54-.62-25.41-.62,24.06-84.88,24.18-84.75h-12.58c-6.79,0-15.79-.37-19.74-.74l-7.4-.74-3.33,12.09Z"/>
  <path class="cls-1" d="M594.92,569.71c-.99,3.82-3.21,11.35-4.81,16.53-1.6,5.3-2.59,9.87-2.22,10.24s8.39.62,17.76.62,17.02.25,17.02.49-1.6,5.92-3.58,12.58c-1.97,6.79-11.97,41.33-22.21,76.98-10.24,35.65-19.62,68.22-20.97,72.42l-2.34,7.77h40.34l1.11-4.07c.62-2.1,9.5-32.57,19.74-67.48s20.73-71.31,23.44-80.8l4.81-17.27,17.15-.37,17.15-.37,4.56-16.28c2.47-9.01,4.44-16.41,4.32-16.41-.12-.12-24.8-.49-54.77-.86l-54.53-.74-1.97,7.03Z"/>
  <path class="cls-1" d="M719.52,568.97c-1.73,5.8-40.34,140.14-52.43,182.09l-4.69,16.28,20.48-.25,20.48-.37,11.35-39.48,11.23-39.48,5.55-.37,5.55-.37.74,26.15c.49,14.43.86,32.57.86,40.34v14.06l19.74-.49c10.73-.25,19.99-.74,20.36-1.11.49-.62-1.23-62.67-2.22-76.36l-.49-5.55,6.66-2.96c11.6-5.06,22.21-19.37,28.62-38.24,5.43-15.91,10.12-36.76,10.86-47.62.62-9.87.37-11.84-1.97-16.28-1.36-2.84-4.44-6.66-6.79-8.39-8.64-6.54-12.95-7.16-54.03-7.65l-37.87-.37-1.97,6.42ZM777.75,597.83c2.96,2.96,3.08,3.82,2.47,10.73-.37,4.19-2.59,13.94-4.93,21.59-4.93,16.41-8.76,21.47-18.63,24.3-5.55,1.73-21.71,2.59-21.71,1.36,0-.37,3.08-11.35,6.91-24.43,3.7-13.08,7.65-26.77,8.64-30.35l1.85-6.42h11.1c10.24,0,11.35.25,14.31,3.21Z"/>
  <path class="cls-1" d="M863.86,604.25c-52.31,110.54-75.87,160.87-75.87,161.98,0,.62,8.51,1.11,20.11,1.11h19.99l8.76-20.11,8.76-19.99,19.12-.37,19-.25-2.71,17.52c-1.6,9.75-2.84,18.88-2.84,20.36q-.12,2.84,20.11,2.84c11.23,0,20.6-.37,20.85-.99.37-.49,1.23-9.25,2.1-19.37,1.85-25.17,15.91-175.43,16.65-180.48l.74-3.95h-27.51l-27.51.12-19.74,41.57ZM893.1,653.22c-2.34,22.33-4.56,40.96-5.06,41.33-.37.37-6.91.37-14.43,0l-13.69-.62,16.41-36.39c9.13-19.99,17.39-38.49,18.38-41.2,1.11-2.59,2.1-4.56,2.34-4.32s-1.48,18.75-3.95,41.2Z"/>
</svg>